<?xml version="1.0" standalone="no"?>
<!DOCTYPE svg PUBLIC "-//W3C//DTD SVG 20010904//EN"
 "http://www.w3.org/TR/2001/REC-SVG-20010904/DTD/svg10.dtd">
<svg version="1.0" xmlns="http://www.w3.org/2000/svg"
 width="447.000000pt" height="358.000000pt" viewBox="0 0 447.000000 358.000000"
 preserveAspectRatio="xMidYMid meet">
<metadata>
Created by potrace 1.16, written by Peter Selinger 2001-2019
</metadata>
<g transform="translate(0.000000,358.000000) scale(0.100000,-0.100000)"
fill="#000000" stroke="none">
<path d="M1655 3260 c-11 -5 -37 -11 -57 -15 -20 -3 -58 -20 -85 -38 -26 -18
-82 -50 -123 -71 -64 -33 -81 -37 -118 -32 -47 6 -73 29 -97 82 -23 51 -40 60
-91 46 -24 -7 -53 -12 -63 -12 -21 0 -121 -86 -121 -104 0 -7 -16 -28 -36 -47
-20 -18 -56 -74 -81 -124 -25 -49 -55 -101 -68 -115 -12 -14 -39 -47 -59 -75
-50 -68 -93 -119 -142 -171 l-41 -44 -77 0 -76 0 0 113 c0 125 18 202 52 228
32 25 13 39 -50 39 -102 0 -102 0 -102 -219 0 -208 8 -252 65 -356 49 -91 121
-279 137 -360 17 -89 49 -168 111 -270 33 -55 64 -118 70 -140 11 -50 15 -131
26 -555 7 -281 12 -342 26 -375 42 -99 75 -163 89 -174 9 -8 16 -19 16 -26 0
-6 9 -20 20 -30 11 -10 20 -22 20 -28 0 -17 58 -83 87 -97 15 -8 53 -30 83
-50 62 -40 55 -39 355 -21 88 6 410 15 715 20 579 9 627 12 750 41 41 10 109
24 150 31 90 16 133 39 151 82 15 34 17 155 4 239 -8 53 2 67 77 114 24 15 45
30 48 34 17 25 163 88 227 98 39 7 94 23 121 37 27 14 53 25 56 25 3 0 25 13
48 30 22 16 45 30 50 30 11 0 75 68 105 112 25 38 25 38 14 140 -7 57 -16 139
-21 183 -15 143 -23 164 -82 217 -51 46 -55 48 -108 45 -54 -2 -55 -2 -107
-67 -29 -36 -60 -80 -70 -99 -10 -19 -33 -48 -51 -64 -18 -16 -40 -42 -49 -58
-23 -38 -59 -38 -108 1 -21 17 -42 30 -46 30 -31 0 45 168 106 235 32 34 42
54 92 180 26 67 28 78 28 240 0 175 -5 202 -48 268 -9 15 -17 45 -17 70 0 82
-125 295 -184 313 -11 4 -41 22 -66 40 -101 75 -127 91 -160 104 -19 8 -52 24
-72 37 -21 13 -40 23 -44 23 -3 0 -29 21 -57 46 -71 64 -268 163 -324 164 -24
0 -192 57 -209 71 -32 26 -540 51 -589 29z m490 -39 c39 -6 79 -15 90 -20 44
-22 198 -71 221 -71 13 0 32 -4 42 -9 9 -5 60 -30 112 -55 53 -25 120 -67 150
-94 30 -26 71 -56 90 -65 19 -10 42 -22 50 -27 8 -5 30 -15 48 -22 17 -7 32
-16 32 -20 0 -5 6 -8 13 -8 8 0 22 -9 32 -20 10 -11 22 -20 28 -20 5 0 27 -15
50 -32 22 -18 51 -37 62 -43 33 -15 78 -72 114 -145 18 -36 37 -73 42 -82 5
-10 9 -36 9 -59 0 -23 8 -58 19 -78 48 -94 51 -108 50 -239 0 -70 -4 -147 -9
-172 -14 -75 -67 -201 -99 -234 -16 -17 -53 -71 -80 -119 -61 -105 -66 -147
-23 -174 15 -9 40 -27 55 -40 38 -30 113 -33 122 -4 3 11 28 41 54 68 27 26
51 57 55 69 7 24 89 133 113 152 30 22 87 15 116 -15 15 -16 35 -36 45 -46 21
-19 29 -50 42 -167 5 -41 14 -119 20 -172 11 -92 11 -100 -8 -130 -35 -55 -93
-104 -177 -148 -44 -23 -85 -46 -91 -51 -5 -4 -44 -13 -85 -19 -81 -12 -201
-65 -257 -112 -18 -15 -38 -28 -45 -28 -7 -1 -29 -16 -50 -35 l-39 -34 7 -63
c24 -234 9 -270 -130 -297 -33 -7 -98 -21 -145 -31 -138 -30 -170 -32 -750
-42 -736 -12 -861 -16 -887 -29 -38 -20 -118 -5 -175 32 -29 19 -66 41 -81 49
-28 14 -148 182 -172 240 -4 8 -12 26 -18 40 -37 85 -39 97 -47 420 -15 539
-18 574 -50 620 -9 14 -20 32 -23 40 -4 8 -17 31 -28 50 -53 86 -77 140 -93
205 -25 101 -48 179 -58 190 -4 5 -8 16 -8 25 0 28 -67 179 -109 245 -27 44
-34 93 -38 274 -5 179 -3 196 13 208 10 7 28 13 40 13 l22 0 -19 -64 c-16 -52
-19 -89 -17 -188 l3 -123 75 -3 c104 -5 138 8 180 64 19 26 47 58 61 73 14 14
37 44 52 66 14 22 42 58 62 80 21 22 56 78 79 125 22 47 60 105 83 130 24 25
43 49 43 54 0 16 71 76 98 82 15 3 40 10 56 15 43 13 46 12 62 -26 8 -20 23
-44 33 -54 10 -10 20 -23 22 -29 2 -6 29 -14 59 -18 50 -6 63 -3 134 30 44 21
101 53 127 72 29 21 67 38 100 44 29 6 55 13 58 16 9 9 389 -3 466 -15z"/>
<path d="M1175 2714 c-27 -8 -68 -18 -90 -23 -94 -21 -166 -57 -240 -120 -41
-35 -75 -68 -75 -73 0 -4 -4 -8 -10 -8 -5 0 -26 -11 -47 -25 -40 -27 -146
-188 -141 -214 6 -32 24 -18 51 38 15 33 33 66 40 73 6 7 18 25 26 39 7 15 33
36 57 48 24 12 47 29 52 36 6 12 87 83 127 113 63 46 279 102 395 102 61 0 81
3 78 13 -7 18 -161 19 -223 1z"/>
<path d="M2435 2608 c-66 -11 -135 -41 -161 -69 -16 -17 -16 -19 0 -25 10 -4
22 0 29 9 26 33 157 67 260 67 53 0 131 -33 178 -77 19 -17 50 -46 70 -65 50
-46 139 -156 139 -172 0 -7 11 -23 25 -36 33 -31 85 -112 85 -132 0 -8 9 -44
20 -78 19 -58 19 -64 4 -75 -21 -15 -6 -26 24 -18 28 7 28 13 -4 125 -27 94
-42 123 -98 189 -17 20 -42 56 -56 80 -14 23 -67 85 -119 136 -144 144 -215
169 -396 141z"/>
<path d="M978 2386 c-184 -81 -224 -114 -234 -193 -11 -91 8 -117 112 -146 28
-8 74 -27 102 -41 40 -20 66 -26 116 -26 59 0 66 2 90 31 14 17 26 35 26 40 0
5 10 23 21 39 19 25 21 38 16 97 -3 37 -9 76 -13 86 -8 22 -112 76 -153 79
-40 4 -44 -14 -6 -25 41 -12 114 -49 127 -64 6 -7 12 -41 14 -75 4 -57 2 -68
-29 -118 l-33 -55 -56 -3 c-45 -2 -69 3 -120 26 -35 15 -85 34 -111 42 -63 17
-82 45 -73 107 3 26 15 57 27 69 29 31 221 125 270 131 23 3 38 10 36 17 -7
22 -53 15 -129 -18z"/>
<path d="M2325 2238 c-16 -6 -48 -18 -70 -28 -22 -10 -48 -21 -58 -24 -22 -7
-13 -26 11 -26 9 0 32 9 51 21 42 25 50 19 17 -14 -26 -26 -33 -66 -20 -101 3
-9 23 -24 43 -33 20 -9 38 -20 41 -24 3 -3 24 -16 47 -28 32 -16 60 -21 115
-21 89 0 95 7 105 116 l6 75 -34 35 c-19 20 -46 42 -61 50 -31 16 -147 17
-193 2z m183 -32 c15 -8 38 -26 51 -40 22 -23 23 -31 17 -92 -4 -37 -9 -71
-12 -76 -3 -4 -33 -8 -67 -8 -48 0 -71 6 -102 25 -22 13 -57 32 -77 41 -53 23
-51 55 6 117 42 45 46 47 100 47 32 0 69 -6 84 -14z"/>
<path d="M1596 2123 c-3 -3 -6 -43 -6 -88 0 -61 -4 -86 -15 -95 -8 -7 -15 -18
-15 -25 0 -7 -7 -18 -15 -25 -8 -7 -15 -20 -15 -29 0 -9 -11 -32 -24 -51 -13
-19 -37 -60 -53 -90 -17 -30 -42 -76 -57 -101 -36 -64 -64 -203 -65 -327 -1
-48 3 -57 30 -83 40 -37 146 -88 219 -105 31 -7 83 -27 116 -44 77 -40 123
-40 162 0 17 17 34 30 38 30 15 0 48 48 80 118 l35 72 -3 150 c-4 205 -22 202
-28 -5 -5 -150 -7 -163 -33 -216 -32 -64 -122 -149 -159 -149 -13 0 -55 15
-94 34 -38 18 -90 36 -114 40 -50 7 -197 82 -213 107 -7 12 -7 50 0 125 15
148 27 198 65 258 17 28 41 69 53 91 11 22 33 59 48 82 15 24 27 50 27 58 0 9
7 18 15 21 8 4 15 14 15 24 0 10 7 23 15 30 11 9 15 34 15 101 0 81 -7 109
-24 92z"/>
<path d="M2176 1732 c-8 -13 3 -42 15 -42 5 0 30 -43 55 -96 37 -79 47 -112
55 -187 15 -132 4 -227 -32 -278 -11 -15 -24 -50 -31 -77 -6 -29 -27 -72 -48
-99 -20 -26 -45 -64 -55 -83 -31 -54 -46 -70 -71 -70 -12 0 -43 -9 -69 -20
-26 -11 -54 -20 -63 -20 -16 0 -57 -26 -162 -102 -44 -32 -48 -33 -159 -36
-63 -2 -123 1 -135 6 -12 6 -28 13 -36 16 -61 26 -116 73 -139 118 -12 24 -25
50 -30 58 -5 8 -12 23 -15 33 -3 10 -10 15 -16 12 -16 -10 -12 -40 10 -68 11
-14 20 -33 20 -42 0 -20 96 -115 116 -115 8 0 14 -4 14 -10 0 -5 12 -13 28
-16 15 -4 32 -11 39 -16 7 -5 69 -8 140 -6 142 3 123 -4 263 103 25 19 53 35
62 35 9 0 37 9 63 20 26 11 60 20 75 20 27 0 80 42 80 63 0 8 29 53 80 125 16
24 35 63 40 88 6 25 17 55 25 68 24 37 45 117 45 176 0 87 -18 218 -34 248 -8
15 -29 57 -47 94 -34 70 -72 117 -83 100z"/>
</g>
</svg>
